<svg width="847" height="500" xmlns="http://www.w3.org/2000/svg" version="1.1"><g width="847" height="500" style="font-size: 10px; font-family: Arial, Helvetica;"><g transform="translate(40, 30)"><g class="background"><path d="M0,460L85.22222222222223,460L170.44444444444446,368L255.66666666666669,460L340.8888888888889,441.75716908968786L426.11111111111114,441.725786562633L511.33333333333337,446.7148014440433L596.5555555555557,460L681.7777777777778,460L767,460" style="fill: none; stroke: rgb(191, 105, 105); stroke-opacity: 0.4;"></path><path d="M0,455.1063829787234L85.22222222222223,460L170.44444444444446,368L255.66666666666669,460L340.8888888888889,460L426.11111111111114,460L511.33333333333337,460L596.5555555555557,447.48388011053635L681.7777777777778,460L767,460" style="fill: none; stroke: rgb(191, 126, 105); stroke-opacity: 0.4;"></path><path d="M0,450.21276595744683L85.22222222222223,460L170.44444444444446,322L255.66666666666669,345L340.8888888888889,438.3836612344313L426.11111111111114,438.34892156367863L511.33333333333337,445.05415162454875L596.5555555555557,441.5550201941473L681.7777777777778,460L767,449.04761904761904" style="fill: none; stroke: rgb(191, 146, 105); stroke-opacity: 0.4;"></path><path d="M0,445.3191489361702L85.22222222222223,460L170.44444444444446,322L255.66666666666669,345L340.8888888888889,394.4405681572389L426.11111111111114,394.3368932668941L511.33333333333337,415.1624548736462L596.5555555555557,436.80606532983774L681.7777777777778,460L767,460" style="fill: none; stroke: rgb(191, 146, 105); stroke-opacity: 0.4;"></path><path d="M0,440.4255319148936L85.22222222222223,460L170.44444444444446,276L255.66666666666669,460L340.8888888888889,419.64003428359206L426.11111111111114,419.5804518543625L511.33333333333337,431.76895306859205L596.5555555555557,424.7527811237866L681.7777777777778,460L767,460" style="fill: none; stroke: rgb(191, 167, 105); stroke-opacity: 0.4;"></path><path d="M0,435.531914893617L85.22222222222223,460L170.44444444444446,230L255.66666666666669,460L340.8888888888889,378.31435605916295L426.11111111111114,378.18565978957696L511.33333333333337,403.5379061371841L596.5555555555557,393.9122794586551L681.7777777777778,460L767,460" style="fill: none; stroke: rgb(191, 167, 105); stroke-opacity: 0.4;"></path><path d="M0,430.63829787234044L85.22222222222223,460L170.44444444444446,46L255.66666666666669,345L340.8888888888889,354.22563871489933L426.11111111111114,354.0599828373223L511.33333333333337,370.3249097472924L596.5555555555557,374.52859066109266L681.7777777777778,424.61538461538464L767,460" style="fill: none; stroke: rgb(191, 167, 105); stroke-opacity: 0.4;"></path><path d="M0,425.74468085106383L85.22222222222223,460L170.44444444444446,46L255.66666666666669,345L340.8888888888889,342.24282731035504L426.11111111111114,342.05519459447765L511.33333333333337,362.0216606498195L596.5555555555557,437.07333663997736L681.7777777777778,424.61538461538464L767,460" style="fill: none; stroke: rgb(191, 167, 105); stroke-opacity: 0.4;"></path><path d="M0,420.8510638297872L85.22222222222223,460L170.44444444444446,432.40000000000003L255.66666666666669,230L340.8888888888889,330.23821216527523L426.11111111111114,330.0338205706951L511.33333333333337,353.71841155234654L596.5555555555557,356.0053851059307L681.7777777777778,424.61538461538464L767,460" style="fill: none; stroke: rgb(191, 187, 105); stroke-opacity: 0.4;"></path><path d="M0,415.95744680851067L85.22222222222223,460L170.44444444444446,432.40000000000003L255.66666666666669,230L340.8888888888889,339.01711569632323L426.11111111111114,338.8276016239643L511.33333333333337,297.2563176895307L596.5555555555557,345.56550697938064L681.7777777777778,389.2307692307692L767,460" style="fill: none; stroke: rgb(191, 187, 105); stroke-opacity: 0.4;"></path><path d="M0,411.06382978723406L85.22222222222223,460L170.44444444444446,432.40000000000003L255.66666666666669,230L340.8888888888889,312.79742771061024L426.11111111111114,312.5656760869095L511.33333333333337,272.3465703971119L596.5555555555557,332.69411181180476L681.7777777777778,389.2307692307692L767,460" style="fill: none; stroke: rgb(191, 187, 105); stroke-opacity: 0.4;"></path><path d="M0,406.17021276595744L85.22222222222223,460L170.44444444444446,432.40000000000003L255.66666666666669,230L340.8888888888889,348.27680550601445L426.11111111111114,348.0990531682447L511.33333333333337,305.55956678700363L596.5555555555557,345.56550697938064L681.7777777777778,389.2307692307692L767,460" style="fill: none; stroke: rgb(191, 187, 105); stroke-opacity: 0.4;"></path><path d="M0,401.27659574468083L85.22222222222223,460L170.44444444444446,230L255.66666666666669,345L340.8888888888889,331.73646033612204L426.11111111111114,331.53317516748035L511.33333333333337,290.6137184115523L596.5555555555557,354.77332955431166L681.7777777777778,389.2307692307692L767,460" style="fill: none; stroke: rgb(174, 191, 105); stroke-opacity: 0.4;"></path><path d="M0,391.48936170212767L85.22222222222223,460L170.44444444444446,340.40000000000003L255.66666666666669,230L340.8888888888889,292.9394640203782L426.11111111111114,292.676007586192L511.33333333333337,255.74007220216606L596.5555555555557,304.03415290866576L681.7777777777778,389.2307692307692L767,449.04761904761904" style="fill: none; stroke: rgb(153, 191, 105); stroke-opacity: 0.4;"></path><path d="M0,386.59574468085106L85.22222222222223,460L170.44444444444446,322L255.66666666666669,345L340.8888888888889,307.7050123103535L426.11111111111114,307.4638898704146L511.33333333333337,269.0252707581227L596.5555555555557,305.32487777226675L681.7777777777778,389.2307692307692L767,460" style="fill: none; stroke: rgb(132, 191, 105); stroke-opacity: 0.4;"></path><path d="M0,381.70212765957444L85.22222222222223,460L170.44444444444446,340.40000000000003L255.66666666666669,230L340.8888888888889,283.7181377541607L426.11111111111114,283.4410447599749L511.33333333333337,247.43682310469313L596.5555555555557,302.57393892156165L681.7777777777778,389.2307692307692L767,460" style="fill: none; stroke: rgb(153, 191, 105); stroke-opacity: 0.4;"></path><path d="M0,332.7659574468085L85.22222222222223,460L170.44444444444446,460L255.66666666666669,0L340.8888888888889,308.0694659733549L426.11111111111114,307.8586314567364L511.33333333333337,269.0252707581227L596.5555555555557,303.22582016580463L681.7777777777778,389.2307692307692L767,454.5238095238095" style="fill: none; stroke: rgb(112, 191, 105); stroke-opacity: 0.4;"></path><path d="M0,327.8723404255319L85.22222222222223,460L170.44444444444446,230L255.66666666666669,345L340.8888888888889,268.4886389851961L426.11111111111114,268.18544345330383L511.33333333333337,234.15162454873646L596.5555555555557,270.42641536172323L681.7777777777778,389.2307692307692L767,460" style="fill: none; stroke: rgb(105, 191, 119); stroke-opacity: 0.4;"></path><path d="M0,322.97872340425533L85.22222222222223,460L170.44444444444446,331.20000000000005L255.66666666666669,345L340.8888888888889,248.3308048634221L426.11111111111114,247.9972308957043L511.33333333333337,215.88447653429603L596.5555555555557,257.82555091050807L681.7777777777778,389.2307692307692L767,454.5238095238095" style="fill: none; stroke: rgb(105, 191, 139); stroke-opacity: 0.4;"></path><path d="M0,318.0851063829787L85.22222222222223,460L170.44444444444446,368L255.66666666666669,345L340.8888888888889,231.41124020624153L426.11111111111114,231.0498799333685L511.33333333333337,199.27797833935023L596.5555555555557,245.4300290512294L681.7777777777778,389.2307692307692L767,460" style="fill: none; stroke: rgb(105, 191, 160); stroke-opacity: 0.4;"></path><path d="M0,313.1914893617021L85.22222222222223,460L170.44444444444446,331.20000000000005L255.66666666666669,345L340.8888888888889,182.52338997165936L426.11111111111114,182.08533744852997L511.33333333333337,154.44043321299637L596.5555555555557,217.7804860766669L681.7777777777778,389.2307692307692L767,454.5238095238095" style="fill: none; stroke: rgb(105, 191, 139); stroke-opacity: 0.4;"></path><path d="M0,308.29787234042556L85.22222222222223,460L170.44444444444446,184L255.66666666666669,0L340.8888888888889,186.23747777401445L426.11111111111114,185.8038695348049L511.33333333333337,157.76173285198553L596.5555555555557,193.3447176362219L681.7777777777778,389.2307692307692L767,460" style="fill: none; stroke: rgb(112, 191, 105); stroke-opacity: 0.4;"></path><path d="M0,303.40425531914894L85.22222222222223,460L170.44444444444446,331.20000000000005L255.66666666666669,345L340.8888888888889,175.99385967306984L426.11111111111114,175.5439054466263L511.33333333333337,149.4584837545126L596.5555555555557,167.84312336143984L681.7777777777778,389.2307692307692L767,0" style="fill: none; stroke: rgb(105, 191, 139); stroke-opacity: 0.4;"></path><path d="M0,298.51063829787233L85.22222222222223,460L170.44444444444446,331.20000000000005L255.66666666666669,345L340.8888888888889,189.8559327144007L426.11111111111114,189.4295212478276L511.33333333333337,161.08303249097474L596.5555555555557,202.32764118188896L681.7777777777778,353.8461538461538L767,454.5238095238095" style="fill: none; stroke: rgb(105, 191, 139); stroke-opacity: 0.4;"></path><path d="M0,293.6170212765957L85.22222222222223,460L170.44444444444446,294.4L255.66666666666669,345L340.8888888888889,139.87582547767676L426.11111111111114,139.35704859633813L511.33333333333337,116.24548736462094L596.5555555555557,148.1171969106498L681.7777777777778,353.8461538461538L767,460" style="fill: none; stroke: rgb(105, 191, 139); stroke-opacity: 0.4;"></path><path d="M0,288.72340425531917L85.22222222222223,460L170.44444444444446,368L255.66666666666669,0L340.8888888888889,180.61045673556475L426.11111111111114,180.16802117211L511.33333333333337,152.77978339350176L596.5555555555557,172.93105647275564L681.7777777777778,353.8461538461538L767,454.5238095238095" style="fill: none; stroke: rgb(112, 191, 105); stroke-opacity: 0.4;"></path><path d="M0,283.82978723404256L85.22222222222223,460L170.44444444444446,368L255.66666666666669,345L340.8888888888889,146.6664486692609L426.11111111111114,146.1704874056233L511.33333333333337,122.88808664259926L596.5555555555557,154.16013604478138L681.7777777777778,353.8461538461538L767,460" style="fill: none; stroke: rgb(105, 191, 180); stroke-opacity: 0.4;"></path><path d="M0,278.93617021276594L85.22222222222223,460L170.44444444444446,368L255.66666666666669,0L340.8888888888889,164.65770857326794L426.11111111111114,164.19259697273446L511.33333333333337,137.83393501805057L596.5555555555557,162.4911783462057L681.7777777777778,353.8461538461538L767,460" style="fill: none; stroke: rgb(112, 191, 105); stroke-opacity: 0.4;"></path><path d="M0,274.04255319148933L85.22222222222223,460L170.44444444444446,368L255.66666666666669,0L340.8888888888889,128.90881998504216L426.11111111111114,128.3772616154551L511.33333333333337,106.2815884476534L596.5555555555557,154.0265003897116L681.7777777777778,353.8461538461538L767,460" style="fill: none; stroke: rgb(112, 191, 105); stroke-opacity: 0.4;"></path><path d="M0,269.1489361702128L85.22222222222223,460L170.44444444444446,276L255.66666666666669,0L340.8888888888889,132.403628396822L426.11111111111114,131.88681286191257L511.33333333333337,109.60288808664262L596.5555555555557,144.24828172606817L681.7777777777778,353.8461538461538L767,460" style="fill: none; stroke: rgb(112, 191, 105); stroke-opacity: 0.4;"></path><path d="M0,264.25531914893617L85.22222222222223,402.5L170.44444444444446,368L255.66666666666669,0L340.8888888888889,117.16101978386456L426.11111111111114,116.62126008667877L511.33333333333337,96.31768953068593L596.5555555555557,132.80124707716288L681.7777777777778,353.8461538461538L767,454.5238095238095" style="fill: none; stroke: rgb(112, 191, 105); stroke-opacity: 0.4;"></path><path d="M0,259.36170212765956L85.22222222222223,258.75L170.44444444444446,340.40000000000003L255.66666666666669,0L340.8888888888889,98.72443917917371L426.11111111111114,98.1546515904322L511.33333333333337,79.71119133574007L596.5555555555557,120.69255296535107L681.7777777777778,353.8461538461538L767,460" style="fill: none; stroke: rgb(112, 191, 105); stroke-opacity: 0.4;"></path><path d="M0,254.468085106383L85.22222222222223,143.75L170.44444444444446,340.40000000000003L255.66666666666669,0L340.8888888888889,101.23600929148944L426.11111111111114,100.66905598061629L511.33333333333337,81.37184115523462L596.5555555555557,83.62006660525759L681.7777777777778,353.8461538461538L767,454.5238095238095" style="fill: none; stroke: rgb(112, 191, 105); stroke-opacity: 0.4;"></path><path d="M0,249.5744680851064L85.22222222222223,345L170.44444444444446,0L255.66666666666669,230L340.8888888888889,78.33104186060183L426.11111111111114,47.87651525531294L511.33333333333337,61.44404332129966L596.5555555555557,59.82640119039178L681.7777777777778,353.8461538461538L767,454.5238095238095" style="fill: none; stroke: rgb(105, 180, 191); stroke-opacity: 0.4;"></path><path d="M0,244.68085106382978L85.22222222222223,201.25L170.44444444444446,0L255.66666666666669,230L340.8888888888889,24.53790199896622L426.11111111111114,23.850352988685586L511.33333333333337,14.945848375451249L596.5555555555557,34.04123857436406L681.7777777777778,353.8461538461538L767,454.5238095238095" style="fill: none; stroke: rgb(105, 180, 191); stroke-opacity: 0.4;"></path><path d="M0,239.78723404255317L85.22222222222223,345L170.44444444444446,184L255.66666666666669,230L340.8888888888889,132.1793810653653L426.11111111111114,131.66456339734486L511.33333333333337,109.60288808664262L596.5555555555557,85.19110040388296L681.7777777777778,318.46153846153845L767,460" style="fill: none; stroke: rgb(105, 180, 191); stroke-opacity: 0.4;"></path><path d="M0,234.8936170212766L85.22222222222223,57.5L170.44444444444446,184L255.66666666666669,230L340.8888888888889,56.95371625077655L426.11111111111114,56.31867775269882L511.33333333333337,41.516245487364586L596.5555555555557,47.069085240558366L681.7777777777778,318.46153846153845L767,449.04761904761904" style="fill: none; stroke: rgb(105, 180, 191); stroke-opacity: 0.4;"></path><path d="M0,230L85.22222222222223,0L170.44444444444446,230L255.66666666666669,0L340.8888888888889,110.79929548838356L426.11111111111114,110.24900305034151L511.33333333333337,89.6750902527076L596.5555555555557,23.54269113583217L681.7777777777778,318.46153846153845L767,460" style="fill: none; stroke: rgb(105, 160, 191); stroke-opacity: 0.4;"></path><path d="M0,225.10638297872342L85.22222222222223,316.25L170.44444444444446,184L255.66666666666669,0L340.8888888888889,10.405076179593436L426.11111111111114,9.699364692478014L511.33333333333337,0L596.5555555555557,13.26904272656418L681.7777777777778,318.46153846153845L767,460" style="fill: none; stroke: rgb(105, 160, 191); stroke-opacity: 0.4;"></path><path d="M0,220.2127659574468L85.22222222222223,402.5L170.44444444444446,368L255.66666666666669,0L340.8888888888889,99.27187866464385L426.11111111111114,98.7052995175701L511.33333333333337,88.014440433213L596.5555555555557,104.44767235881807L681.7777777777778,283.0769230769231L767,454.5238095238095" style="fill: none; stroke: rgb(105, 139, 191); stroke-opacity: 0.4;"></path><path d="M0,215.31914893617022L85.22222222222223,345L170.44444444444446,368L255.66666666666669,0L340.8888888888889,76.83306968647076L426.11111111111114,76.23156634672932L511.33333333333337,69.74729241877259L596.5555555555557,80.99950400340111L681.7777777777778,283.0769230769231L767,460" style="fill: none; stroke: rgb(105, 139, 191); stroke-opacity: 0.4;"></path><path d="M0,210.42553191489364L85.22222222222223,431.25L170.44444444444446,368L255.66666666666669,0L340.8888888888889,110.97027545372208L426.11111111111114,110.42149517209555L511.33333333333337,99.63898916967509L596.5555555555557,91.14603557004182L681.7777777777778,283.0769230769231L767,460" style="fill: none; stroke: rgb(105, 139, 191); stroke-opacity: 0.4;"></path><path d="M0,205.531914893617L85.22222222222223,431.25L170.44444444444446,368L255.66666666666669,230L340.8888888888889,112.4874293995901L426.11111111111114,111.94075270600626L511.33333333333337,101.2996389891697L596.5555555555557,125.26875929993622L681.7777777777778,283.0769230769231L767,460" style="fill: none; stroke: rgb(105, 119, 191); stroke-opacity: 0.4;"></path><path d="M0,200.63829787234044L85.22222222222223,402.5L170.44444444444446,460L255.66666666666669,345L340.8888888888889,88.42796770718428L426.11111111111114,87.8449301594398L511.33333333333337,79.71119133574007L596.5555555555557,92.11407921774247L681.7777777777778,283.0769230769231L767,454.5238095238095" style="fill: none; stroke: rgb(105, 160, 191); stroke-opacity: 0.4;"></path><path d="M0,195.74468085106383L85.22222222222223,258.75L170.44444444444446,460L255.66666666666669,345L340.8888888888889,101.99224029234045L426.11111111111114,101.4286847475716L511.33333333333337,91.33574007220221L596.5555555555557,70.5661446892936L681.7777777777778,283.0769230769231L767,460" style="fill: none; stroke: rgb(105, 160, 191); stroke-opacity: 0.4;"></path><path d="M0,190.85106382978722L85.22222222222223,316.25L170.44444444444446,460L255.66666666666669,345L340.8888888888889,50.53265266143336L426.11111111111114,49.890029061172754L511.33333333333337,46.498194945848354L596.5555555555557,62.62623113441509L681.7777777777778,283.0769230769231L767,460" style="fill: none; stroke: rgb(112, 105, 191); stroke-opacity: 0.4;"></path><path d="M0,185.95744680851067L85.22222222222223,373.75L170.44444444444446,368L255.66666666666669,345L340.8888888888889,170.6740229791265L426.11111111111114,170.21986976556354L511.33333333333337,149.4584837545126L596.5555555555557,69.93056047615676L681.7777777777778,247.69230769230768L767,460" style="fill: none; stroke: rgb(105, 160, 191); stroke-opacity: 0.4;"></path><path d="M0,181.063829787234L85.22222222222223,172.5L170.44444444444446,368L255.66666666666669,230L340.8888888888889,110.77031583324151L426.11111111111114,110.2224658008409L511.33333333333337,97.97833935018053L596.5555555555557,85.02161128037983L681.7777777777778,247.69230769230768L767,460" style="fill: none; stroke: rgb(132, 105, 191); stroke-opacity: 0.4;"></path><path d="M0,176.17021276595744L85.22222222222223,431.25L170.44444444444446,404.8L255.66666666666669,345L340.8888888888889,80.77940872503615L426.11111111111114,80.18229936613471L511.33333333333337,71.40794223826714L596.5555555555557,62.668603415290875L681.7777777777778,247.69230769230768L767,454.5238095238095" style="fill: none; stroke: rgb(105, 160, 191); stroke-opacity: 0.4;"></path><path d="M0,171.2765957446809L85.22222222222223,431.25L170.44444444444446,404.8L255.66666666666669,345L340.8888888888889,70.60368581613875L426.11111111111114,69.99199555789528L511.33333333333337,63.10469314079421L596.5555555555557,72.65868348331321L681.7777777777778,247.69230769230768L767,460" style="fill: none; stroke: rgb(105, 160, 191); stroke-opacity: 0.4;"></path><path d="M0,166.38297872340422L85.22222222222223,258.75L170.44444444444446,404.8L255.66666666666669,345L340.8888888888889,50.06290625141554L426.11111111111114,49.4189928825366L511.33333333333337,44.8375451263538L596.5555555555557,47.37872883157371L681.7777777777778,247.69230769230768L767,460" style="fill: none; stroke: rgb(105, 160, 191); stroke-opacity: 0.4;"></path><path d="M0,161.48936170212767L85.22222222222223,345L170.44444444444446,404.8L255.66666666666669,345L340.8888888888889,70.43946777033352L426.11111111111114,69.82613774851632L511.33333333333337,63.10469314079421L596.5555555555557,44.45830085736549L681.7777777777778,247.69230769230768L767,460" style="fill: none; stroke: rgb(105, 160, 191); stroke-opacity: 0.4;"></path><path d="M0,156.5957446808511L85.22222222222223,345L170.44444444444446,404.8L255.66666666666669,345L340.8888888888889,44.463898879603335L426.11111111111114,43.80968176934232L511.33333333333337,39.855595667870034L596.5555555555557,30.27662438886125L681.7777777777778,247.69230769230768L767,460" style="fill: none; stroke: rgb(105, 160, 191); stroke-opacity: 0.4;"></path><path d="M0,151.70212765957444L85.22222222222223,402.5L170.44444444444446,404.8L255.66666666666669,345L340.8888888888889,60.44079675451866L426.11111111111114,59.81164321821842L511.33333333333337,49.819494584837514L596.5555555555557,29.031531212357436L681.7777777777778,212.30769230769232L767,454.5238095238095" style="fill: none; stroke: rgb(105, 160, 191); stroke-opacity: 0.4;"></path><path d="M0,146.8085106382979L85.22222222222223,402.5L170.44444444444446,368L255.66666666666669,345L340.8888888888889,85.41215159539598L426.11111111111114,84.82300087255629L511.33333333333337,71.40794223826714L596.5555555555557,36.55098136469917L681.7777777777778,176.9230769230769L767,460" style="fill: none; stroke: rgb(105, 160, 191); stroke-opacity: 0.4;"></path><path d="M0,141.91489361702128L85.22222222222223,287.5L170.44444444444446,0L255.66666666666669,0L340.8888888888889,10.753246036372161L426.11111111111114,11.819027496340368L511.33333333333337,4.9819494584837685L596.5555555555557,25.540707149436628L681.7777777777778,176.9230769230769L767,460" style="fill: none; stroke: rgb(105, 191, 139); stroke-opacity: 0.4;"></path><path d="M0,137.02127659574467L85.22222222222223,143.75L170.44444444444446,92L255.66666666666669,230L340.8888888888889,20.506279975268285L426.11111111111114,17.375264110533408L511.33333333333337,13.28519855595664L596.5555555555557,20.746120598030245L681.7777777777778,176.9230769230769L767,460" style="fill: none; stroke: rgb(153, 105, 191); stroke-opacity: 0.4;"></path><path d="M0,132.1276595744681L85.22222222222223,201.25L170.44444444444446,0L255.66666666666669,0L340.8888888888889,72.90632641471569L426.11111111111114,70.29717392715236L511.33333333333337,63.10469314079421L596.5555555555557,84.5587755969674L681.7777777777778,141.53846153846155L767,460" style="fill: none; stroke: rgb(105, 191, 139); stroke-opacity: 0.4;"></path><path d="M0,127.23404255319144L85.22222222222223,115L170.44444444444446,211.6L255.66666666666669,460L340.8888888888889,67.32981277522788L426.11111111111114,65.99482235186377L511.33333333333337,58.1227436823105L596.5555555555557,69.53291291716857L681.7777777777778,141.53846153846155L767,460" style="fill: none; stroke: rgb(174, 105, 191); stroke-opacity: 0.4;"></path><path d="M0,122.34042553191489L85.22222222222223,402.5L170.44444444444446,322L255.66666666666669,115L340.8888888888889,86.04377007913604L426.11111111111114,85.87453938401853L511.33333333333337,74.7292418772563L596.5555555555557,58.13476936158145L681.7777777777778,141.53846153846155L767,460" style="fill: none; stroke: rgb(191, 105, 187); stroke-opacity: 0.4;"></path><path d="M0,117.44680851063833L85.22222222222223,287.5L170.44444444444446,322L255.66666666666669,115L340.8888888888889,42.87788375318331L426.11111111111114,39.37464394655052L511.33333333333337,36.534296028880874L596.5555555555557,40.65131439098707L681.7777777777778,141.53846153846155L767,460" style="fill: none; stroke: rgb(191, 105, 187); stroke-opacity: 0.4;"></path><path d="M0,112.55319148936167L85.22222222222223,258.75L170.44444444444446,368L255.66666666666669,345L340.8888888888889,100.0504653994617L426.11111111111114,99.48151406546339L511.33333333333337,88.014440433213L596.5555555555557,123.57712747112589L681.7777777777778,141.53846153846155L767,460" style="fill: none; stroke: rgb(105, 160, 191); stroke-opacity: 0.4;"></path><path d="M0,107.65957446808511L85.22222222222223,201.25L170.44444444444446,92L255.66666666666669,0L340.8888888888889,186.975768988349L426.11111111111114,186.54359536463488L511.33333333333337,164.4043321299639L596.5555555555557,120.22319846949614L681.7777777777778,141.53846153846155L767,460" style="fill: none; stroke: rgb(191, 105, 167); stroke-opacity: 0.4;"></path><path d="M0,102.76595744680856L85.22222222222223,287.5L170.44444444444446,368L255.66666666666669,345L340.8888888888889,82.29021474644452L426.11111111111114,81.6949225876703L511.33333333333337,71.40794223826714L596.5555555555557,106.69666265145605L681.7777777777778,141.53846153846155L767,460" style="fill: none; stroke: rgb(105, 160, 191); stroke-opacity: 0.4;"></path><path d="M0,97.87234042553189L85.22222222222223,431.25L170.44444444444446,368L255.66666666666669,345L340.8888888888889,69.15277108202406L426.11111111111114,69.7996004990157L511.33333333333337,59.78339350180505L596.5555555555557,100.79387798483668L681.7777777777778,106.15384615384613L767,454.5238095238095" style="fill: none; stroke: rgb(105, 160, 191); stroke-opacity: 0.4;"></path><path d="M0,92.97872340425533L85.22222222222223,316.25L170.44444444444446,349.59999999999997L255.66666666666669,345L340.8888888888889,86.51558646452105L426.11111111111114,85.92761388301977L511.33333333333337,76.38989169675091L596.5555555555557,90.10954439169558L681.7777777777778,106.15384615384613L767,460" style="fill: none; stroke: rgb(105, 160, 191); stroke-opacity: 0.4;"></path><path d="M0,88.08510638297872L85.22222222222223,287.5L170.44444444444446,92L255.66666666666669,0L340.8888888888889,59.02727957537303L426.11111111111114,58.39521752612268L511.33333333333337,53.14079422382673L596.5555555555557,67.42733649826408L681.7777777777778,106.15384615384613L767,460" style="fill: none; stroke: rgb(191, 105, 146); stroke-opacity: 0.4;"></path><path d="M0,83.19148936170211L85.22222222222223,402.5L170.44444444444446,312.79999999999995L255.66666666666669,230L340.8888888888889,55.57400866929686L426.11111111111114,54.938740778666386L511.33333333333337,48.15884476534296L596.5555555555557,75.37702827180618L681.7777777777778,106.15384615384613L767,460" style="fill: none; stroke: rgb(191, 105, 126); stroke-opacity: 0.4;"></path><path d="M0,78.29787234042556L85.22222222222223,402.5L170.44444444444446,312.79999999999995L255.66666666666669,230L340.8888888888889,144.0030803633437L426.11111111111114,146.880358829765L511.33333333333337,126.20938628158848L596.5555555555557,81.03209806561324L681.7777777777778,106.15384615384613L767,460" style="fill: none; stroke: rgb(191, 105, 126); stroke-opacity: 0.4;"></path><path d="M0,73.40425531914889L85.22222222222223,402.5L170.44444444444446,312.79999999999995L255.66666666666669,230L340.8888888888889,40.29041454406689L426.11111111111114,40.33661924094815L511.33333333333337,36.534296028880874L596.5555555555557,59.56890809891593L681.7777777777778,70.76923076923077L767,460" style="fill: none; stroke: rgb(191, 105, 126); stroke-opacity: 0.4;"></path><path d="M0,68.51063829787233L85.22222222222223,431.25L170.44444444444446,276L255.66666666666669,230L340.8888888888889,36.58916058898899L426.11111111111114,35.921484355281905L511.33333333333337,33.212996389891714L596.5555555555557,66.69071069226948L681.7777777777778,70.76923076923077L767,460" style="fill: none; stroke: rgb(191, 167, 105); stroke-opacity: 0.4;"></path><path d="M0,63.61702127659578L85.22222222222223,345L170.44444444444446,312.79999999999995L255.66666666666669,230L340.8888888888889,33.22213865654993L426.11111111111114,32.551253668702714L511.33333333333337,29.891696750902554L596.5555555555557,62.303549918514875L681.7777777777778,70.76923076923077L767,460" style="fill: none; stroke: rgb(191, 105, 126); stroke-opacity: 0.4;"></path><path d="M0,58.72340425531911L85.22222222222223,230L170.44444444444446,312.79999999999995L255.66666666666669,230L340.8888888888889,49.70880246525064L426.11111111111114,49.797148687920526L511.33333333333337,44.8375451263538L596.5555555555557,64.7513639906469L681.7777777777778,70.76923076923077L767,460" style="fill: none; stroke: rgb(191, 105, 126); stroke-opacity: 0.4;"></path><path d="M0,53.829787234042556L85.22222222222223,402.5L170.44444444444446,138L255.66666666666669,0L340.8888888888889,30.87202662288314L426.11111111111114,32.57115660582815L511.33333333333337,28.231046931407946L596.5555555555557,51.49861829518892L681.7777777777778,35.38461538461536L767,460" style="fill: none; stroke: rgb(191, 105, 126); stroke-opacity: 0.4;"></path><path d="M0,48.936170212766L85.22222222222223,345L170.44444444444446,138L255.66666666666669,0L340.8888888888889,52.661829324231064L426.11111111111114,53.32660287150355L511.33333333333337,46.498194945848354L596.5555555555557,37.91667257138812L681.7777777777778,0L767,460" style="fill: none; stroke: rgb(191, 105, 126); stroke-opacity: 0.4;"></path><path d="M0,44.04255319148933L85.22222222222223,345L170.44444444444446,138L255.66666666666669,0L340.8888888888889,30.092473899560503L426.11111111111114,29.61557044269614L511.33333333333337,26.570397111913394L596.5555555555557,7.789980868702571L681.7777777777778,0L767,460" style="fill: none; stroke: rgb(191, 105, 126); stroke-opacity: 0.4;"></path><path d="M0,39.14893617021278L85.22222222222223,316.25L170.44444444444446,138L255.66666666666669,0L340.8888888888889,28.211694280837946L426.11111111111114,28.408125590417797L511.33333333333337,24.909747292418785L596.5555555555557,27.251895415574268L681.7777777777778,0L767,460" style="fill: none; stroke: rgb(191, 105, 187); stroke-opacity: 0.4;"></path><path d="M0,34.25531914893617L85.22222222222223,316.25L170.44444444444446,138L255.66666666666669,115L340.8888888888889,0L426.11111111111114,0L511.33333333333337,0L596.5555555555557,6.502515411322918L681.7777777777778,0L767,460" style="fill: none; stroke: rgb(191, 105, 126); stroke-opacity: 0.4;"></path><path d="M0,29.361702127659555L85.22222222222223,431.25L170.44444444444446,303.6L255.66666666666669,345L340.8888888888889,78.99274398634651L426.11111111111114,79.4856965667434L511.33333333333337,69.74729241877259L596.5555555555557,30.824204634025364L681.7777777777778,0L767,460" style="fill: none; stroke: rgb(191, 105, 126); stroke-opacity: 0.4;"></path><path d="M0,24.468085106383L85.22222222222223,431.25L170.44444444444446,303.6L255.66666666666669,345L340.8888888888889,35.73481275572823L426.11111111111114,35.69260057833901L511.33333333333337,31.552346570397106L596.5555555555557,26.626089421101142L681.7777777777778,0L767,460" style="fill: none; stroke: rgb(191, 105, 126); stroke-opacity: 0.4;"></path><path d="M0,19.574468085106332L85.22222222222223,431.25L170.44444444444446,303.6L255.66666666666669,345L340.8888888888889,92.15820131740435L426.11111111111114,92.15723320329124L511.33333333333337,81.37184115523462L596.5555555555557,21.05250478282437L681.7777777777778,0L767,454.5238095238095" style="fill: none; stroke: rgb(191, 105, 126); stroke-opacity: 0.4;"></path><path d="M0,14.680851063829778L85.22222222222223,287.5L170.44444444444446,303.6L255.66666666666669,345L340.8888888888889,33.61405399275742L426.11111111111114,33.931190642735146L511.33333333333337,29.891696750902554L596.5555555555557,20.354991851484442L681.7777777777778,0L767,460" style="fill: none; stroke: rgb(191, 105, 126); stroke-opacity: 0.4;"></path><path d="M0,9.787234042553223L85.22222222222223,373.75L170.44444444444446,460L255.66666666666669,460L340.8888888888889,3.849188194660485L426.11111111111114,3.4995997778947867L511.33333333333337,3.32129963898916L596.5555555555557,0L681.7777777777778,0L767,460" style="fill: none; stroke: rgb(105, 160, 191); stroke-opacity: 0.4;"></path><path d="M0,4.893617021276555L85.22222222222223,431.25L170.44444444444446,460L255.66666666666669,460L340.8888888888889,24.53790199896622L426.11111111111114,24.172117138880708L511.33333333333337,21.588447653429625L596.5555555555557,15.958052859066072L681.7777777777778,0L767,460" style="fill: none; stroke: rgb(105, 160, 191); stroke-opacity: 0.4;"></path><path d="M0,0L85.22222222222223,345L170.44444444444446,460L255.66666666666669,460L340.8888888888889,56.50798155501957L426.11111111111114,56.46463262495229L511.33333333333337,49.819494584837514L596.5555555555557,4.6022815843548415L681.7777777777778,0L767,460" style="fill: none; stroke: rgb(105, 160, 191); stroke-opacity: 0.4;"></path></g><g class="dim" transform="translate(0)"><g class="axis" fill="none" font-size="10" font-family="sans-serif" text-anchor="end"><path class="domain" stroke="#000" d="M-6,460.5H0.5V0.5H-6" style="fill: none; stroke: rgb(0, 0, 0); stroke-width: 1px; shape-rendering: crispedges;"></path><g class="tick" opacity="1" transform="translate(0,426.24468085106383)"><line stroke="#000" x2="-6" style="fill: none; stroke: rgb(0, 0, 0); stroke-width: 1px; shape-rendering: crispedges;"></line><text fill="#000" x="-9" dy="0.32em" style="font-size: 10px; font-family: Arial, Helvetica;">1,930</text></g><g class="tick" opacity="1" transform="translate(0,377.3085106382979)"><line stroke="#000" x2="-6" style="fill: none; stroke: rgb(0, 0, 0); stroke-width: 1px; shape-rendering: crispedges;"></line><text fill="#000" x="-9" dy="0.32em" style="font-size: 10px; font-family: Arial, Helvetica;">1,940</text></g><g class="tick" opacity="1" transform="translate(0,328.3723404255319)"><line stroke="#000" x2="-6" style="fill: none; stroke: rgb(0, 0, 0); stroke-width: 1px; shape-rendering: crispedges;"></line><text fill="#000" x="-9" dy="0.32em" style="font-size: 10px; font-family: Arial, Helvetica;">1,950</text></g><g class="tick" opacity="1" transform="translate(0,279.43617021276594)"><line stroke="#000" x2="-6" style="fill: none; stroke: rgb(0, 0, 0); stroke-width: 1px; shape-rendering: crispedges;"></line><text fill="#000" x="-9" dy="0.32em" style="font-size: 10px; font-family: Arial, Helvetica;">1,960</text></g><g class="tick" opacity="1" transform="translate(0,230.5)"><line stroke="#000" x2="-6" style="fill: none; stroke: rgb(0, 0, 0); stroke-width: 1px; shape-rendering: crispedges;"></line><text fill="#000" x="-9" dy="0.32em" style="font-size: 10px; font-family: Arial, Helvetica;">1,970</text></g><g class="tick" opacity="1" transform="translate(0,181.563829787234)"><line stroke="#000" x2="-6" style="fill: none; stroke: rgb(0, 0, 0); stroke-width: 1px; shape-rendering: crispedges;"></line><text fill="#000" x="-9" dy="0.32em" style="font-size: 10px; font-family: Arial, Helvetica;">1,980</text></g><g class="tick" opacity="1" transform="translate(0,132.6276595744681)"><line stroke="#000" x2="-6" style="fill: none; stroke: rgb(0, 0, 0); stroke-width: 1px; shape-rendering: crispedges;"></line><text fill="#000" x="-9" dy="0.32em" style="font-size: 10px; font-family: Arial, Helvetica;">1,990</text></g><g class="tick" opacity="1" transform="translate(0,83.69148936170211)"><line stroke="#000" x2="-6" style="fill: none; stroke: rgb(0, 0, 0); stroke-width: 1px; shape-rendering: crispedges;"></line><text fill="#000" x="-9" dy="0.32em" style="font-size: 10px; font-family: Arial, Helvetica;">2,000</text></g><g class="tick" opacity="1" transform="translate(0,34.75531914893617)"><line stroke="#000" x2="-6" style="fill: none; stroke: rgb(0, 0, 0); stroke-width: 1px; shape-rendering: crispedges;"></line><text fill="#000" x="-9" dy="0.32em" style="font-size: 10px; font-family: Arial, Helvetica;">2,010</text></g><text text-anchor="middle" y="-9" style="font-size: 10px; font-family: Arial, Helvetica;">Year</text></g></g><g class="dim" transform="translate(85.22222222222223)"><g class="axis" fill="none" font-size="10" font-family="sans-serif" text-anchor="end"><path class="domain" stroke="#000" d="M-6,460.5H0.5V0.5H-6" style="fill: none; stroke: rgb(0, 0, 0); stroke-width: 1px; shape-rendering: crispedges;"></path><g class="tick" opacity="1" transform="translate(0,460.5)"><line stroke="#000" x2="-6" style="fill: none; stroke: rgb(0, 0, 0); stroke-width: 1px; shape-rendering: crispedges;"></line><text fill="#000" x="-9" dy="0.32em" style="font-size: 10px; font-family: Arial, Helvetica;">0</text></g><g class="tick" opacity="1" transform="translate(0,403)"><line stroke="#000" x2="-6" style="fill: none; stroke: rgb(0, 0, 0); stroke-width: 1px; shape-rendering: crispedges;"></line><text fill="#000" x="-9" dy="0.32em" style="font-size: 10px; font-family: Arial, Helvetica;">2</text></g><g class="tick" opacity="1" transform="translate(0,345.5)"><line stroke="#000" x2="-6" style="fill: none; stroke: rgb(0, 0, 0); stroke-width: 1px; shape-rendering: crispedges;"></line><text fill="#000" x="-9" dy="0.32em" style="font-size: 10px; font-family: Arial, Helvetica;">4</text></g><g class="tick" opacity="1" transform="translate(0,288)"><line stroke="#000" x2="-6" style="fill: none; stroke: rgb(0, 0, 0); stroke-width: 1px; shape-rendering: crispedges;"></line><text fill="#000" x="-9" dy="0.32em" style="font-size: 10px; font-family: Arial, Helvetica;">6</text></g><g class="tick" opacity="1" transform="translate(0,230.5)"><line stroke="#000" x2="-6" style="fill: none; stroke: rgb(0, 0, 0); stroke-width: 1px; shape-rendering: crispedges;"></line><text fill="#000" x="-9" dy="0.32em" style="font-size: 10px; font-family: Arial, Helvetica;">8</text></g><g class="tick" opacity="1" transform="translate(0,173)"><line stroke="#000" x2="-6" style="fill: none; stroke: rgb(0, 0, 0); stroke-width: 1px; shape-rendering: crispedges;"></line><text fill="#000" x="-9" dy="0.32em" style="font-size: 10px; font-family: Arial, Helvetica;">10</text></g><g class="tick" opacity="1" transform="translate(0,115.5)"><line stroke="#000" x2="-6" style="fill: none; stroke: rgb(0, 0, 0); stroke-width: 1px; shape-rendering: crispedges;"></line><text fill="#000" x="-9" dy="0.32em" style="font-size: 10px; font-family: Arial, Helvetica;">12</text></g><g class="tick" opacity="1" transform="translate(0,58)"><line stroke="#000" x2="-6" style="fill: none; stroke: rgb(0, 0, 0); stroke-width: 1px; shape-rendering: crispedges;"></line><text fill="#000" x="-9" dy="0.32em" style="font-size: 10px; font-family: Arial, Helvetica;">14</text></g><g class="tick" opacity="1" transform="translate(0,0.5)"><line stroke="#000" x2="-6" style="fill: none; stroke: rgb(0, 0, 0); stroke-width: 1px; shape-rendering: crispedges;"></line><text fill="#000" x="-9" dy="0.32em" style="font-size: 10px; font-family: Arial, Helvetica;">16</text></g><text text-anchor="middle" y="-9" style="font-size: 10px; font-family: Arial, Helvetica;">Qualified</text></g></g><g class="dim" transform="translate(170.44444444444446)"><g class="axis" fill="none" font-size="10" font-family="sans-serif" text-anchor="end"><path class="domain" stroke="#000" d="M-6,460.5H0.5V0.5H-6" style="fill: none; stroke: rgb(0, 0, 0); stroke-width: 1px; shape-rendering: crispedges;"></path><g class="tick" opacity="1" transform="translate(0,460.5)"><line stroke="#000" x2="-6" style="fill: none; stroke: rgb(0, 0, 0); stroke-width: 1px; shape-rendering: crispedges;"></line><text fill="#000" x="-9" dy="0.32em" style="font-size: 10px; font-family: Arial, Helvetica;">2.0</text></g><g class="tick" opacity="1" transform="translate(0,414.5)"><line stroke="#000" x2="-6" style="fill: none; stroke: rgb(0, 0, 0); stroke-width: 1px; shape-rendering: crispedges;"></line><text fill="#000" x="-9" dy="0.32em" style="font-size: 10px; font-family: Arial, Helvetica;">2.5</text></g><g class="tick" opacity="1" transform="translate(0,368.5)"><line stroke="#000" x2="-6" style="fill: none; stroke: rgb(0, 0, 0); stroke-width: 1px; shape-rendering: crispedges;"></line><text fill="#000" x="-9" dy="0.32em" style="font-size: 10px; font-family: Arial, Helvetica;">3.0</text></g><g class="tick" opacity="1" transform="translate(0,322.5)"><line stroke="#000" x2="-6" style="fill: none; stroke: rgb(0, 0, 0); stroke-width: 1px; shape-rendering: crispedges;"></line><text fill="#000" x="-9" dy="0.32em" style="font-size: 10px; font-family: Arial, Helvetica;">3.5</text></g><g class="tick" opacity="1" transform="translate(0,276.5)"><line stroke="#000" x2="-6" style="fill: none; stroke: rgb(0, 0, 0); stroke-width: 1px; shape-rendering: crispedges;"></line><text fill="#000" x="-9" dy="0.32em" style="font-size: 10px; font-family: Arial, Helvetica;">4.0</text></g><g class="tick" opacity="1" transform="translate(0,230.5)"><line stroke="#000" x2="-6" style="fill: none; stroke: rgb(0, 0, 0); stroke-width: 1px; shape-rendering: crispedges;"></line><text fill="#000" x="-9" dy="0.32em" style="font-size: 10px; font-family: Arial, Helvetica;">4.5</text></g><g class="tick" opacity="1" transform="translate(0,184.5)"><line stroke="#000" x2="-6" style="fill: none; stroke: rgb(0, 0, 0); stroke-width: 1px; shape-rendering: crispedges;"></line><text fill="#000" x="-9" dy="0.32em" style="font-size: 10px; font-family: Arial, Helvetica;">5.0</text></g><g class="tick" opacity="1" transform="translate(0,138.5)"><line stroke="#000" x2="-6" style="fill: none; stroke: rgb(0, 0, 0); stroke-width: 1px; shape-rendering: crispedges;"></line><text fill="#000" x="-9" dy="0.32em" style="font-size: 10px; font-family: Arial, Helvetica;">5.5</text></g><g class="tick" opacity="1" transform="translate(0,92.5)"><line stroke="#000" x2="-6" style="fill: none; stroke: rgb(0, 0, 0); stroke-width: 1px; shape-rendering: crispedges;"></line><text fill="#000" x="-9" dy="0.32em" style="font-size: 10px; font-family: Arial, Helvetica;">6.0</text></g><g class="tick" opacity="1" transform="translate(0,46.5)"><line stroke="#000" x2="-6" style="fill: none; stroke: rgb(0, 0, 0); stroke-width: 1px; shape-rendering: crispedges;"></line><text fill="#000" x="-9" dy="0.32em" style="font-size: 10px; font-family: Arial, Helvetica;">6.5</text></g><g class="tick" opacity="1" transform="translate(0,0.5)"><line stroke="#000" x2="-6" style="fill: none; stroke: rgb(0, 0, 0); stroke-width: 1px; shape-rendering: crispedges;"></line><text fill="#000" x="-9" dy="0.32em" style="font-size: 10px; font-family: Arial, Helvetica;">7.0</text></g><text text-anchor="middle" y="-9" style="font-size: 10px; font-family: Arial, Helvetica;">EngineSizeLitre</text></g></g><g class="dim" transform="translate(255.66666666666669)"><g class="axis" fill="none" font-size="10" font-family="sans-serif" text-anchor="end"><path class="domain" stroke="#000" d="M-6,460.5H0.5V0.5H-6" style="fill: none; stroke: rgb(0, 0, 0); stroke-width: 1px; shape-rendering: crispedges;"></path><g class="tick" opacity="1" transform="translate(0,460.5)"><line stroke="#000" x2="-6" style="fill: none; stroke: rgb(0, 0, 0); stroke-width: 1px; shape-rendering: crispedges;"></line><text fill="#000" x="-9" dy="0.32em" style="font-size: 10px; font-family: Arial, Helvetica;">4</text></g><g class="tick" opacity="1" transform="translate(0,403)"><line stroke="#000" x2="-6" style="fill: none; stroke: rgb(0, 0, 0); stroke-width: 1px; shape-rendering: crispedges;"></line><text fill="#000" x="-9" dy="0.32em" style="font-size: 10px; font-family: Arial, Helvetica;">5</text></g><g class="tick" opacity="1" transform="translate(0,345.5)"><line stroke="#000" x2="-6" style="fill: none; stroke: rgb(0, 0, 0); stroke-width: 1px; shape-rendering: crispedges;"></line><text fill="#000" x="-9" dy="0.32em" style="font-size: 10px; font-family: Arial, Helvetica;">6</text></g><g class="tick" opacity="1" transform="translate(0,288)"><line stroke="#000" x2="-6" style="fill: none; stroke: rgb(0, 0, 0); stroke-width: 1px; shape-rendering: crispedges;"></line><text fill="#000" x="-9" dy="0.32em" style="font-size: 10px; font-family: Arial, Helvetica;">7</text></g><g class="tick" opacity="1" transform="translate(0,230.5)"><line stroke="#000" x2="-6" style="fill: none; stroke: rgb(0, 0, 0); stroke-width: 1px; shape-rendering: crispedges;"></line><text fill="#000" x="-9" dy="0.32em" style="font-size: 10px; font-family: Arial, Helvetica;">8</text></g><g class="tick" opacity="1" transform="translate(0,173)"><line stroke="#000" x2="-6" style="fill: none; stroke: rgb(0, 0, 0); stroke-width: 1px; shape-rendering: crispedges;"></line><text fill="#000" x="-9" dy="0.32em" style="font-size: 10px; font-family: Arial, Helvetica;">9</text></g><g class="tick" opacity="1" transform="translate(0,115.5)"><line stroke="#000" x2="-6" style="fill: none; stroke: rgb(0, 0, 0); stroke-width: 1px; shape-rendering: crispedges;"></line><text fill="#000" x="-9" dy="0.32em" style="font-size: 10px; font-family: Arial, Helvetica;">10</text></g><g class="tick" opacity="1" transform="translate(0,58)"><line stroke="#000" x2="-6" style="fill: none; stroke: rgb(0, 0, 0); stroke-width: 1px; shape-rendering: crispedges;"></line><text fill="#000" x="-9" dy="0.32em" style="font-size: 10px; font-family: Arial, Helvetica;">11</text></g><g class="tick" opacity="1" transform="translate(0,0.5)"><line stroke="#000" x2="-6" style="fill: none; stroke: rgb(0, 0, 0); stroke-width: 1px; shape-rendering: crispedges;"></line><text fill="#000" x="-9" dy="0.32em" style="font-size: 10px; font-family: Arial, Helvetica;">12</text></g><text text-anchor="middle" y="-9" style="font-size: 10px; font-family: Arial, Helvetica;">NoCylinders</text></g></g><g class="dim" transform="translate(340.8888888888889)"><g class="axis" fill="none" font-size="10" font-family="sans-serif" text-anchor="end"><path class="domain" stroke="#000" d="M-6,460.5H0.5V0.5H-6" style="fill: none; stroke: rgb(0, 0, 0); stroke-width: 1px; shape-rendering: crispedges;"></path><g class="tick" opacity="1" transform="translate(0,402.17361408399245)"><line stroke="#000" x2="-6" style="fill: none; stroke: rgb(0, 0, 0); stroke-width: 1px; shape-rendering: crispedges;"></line><text fill="#000" x="-9" dy="0.32em" style="font-size: 10px; font-family: Arial, Helvetica;">2,500</text></g><g class="tick" opacity="1" transform="translate(0,333.17443517422146)"><line stroke="#000" x2="-6" style="fill: none; stroke: rgb(0, 0, 0); stroke-width: 1px; shape-rendering: crispedges;"></line><text fill="#000" x="-9" dy="0.32em" style="font-size: 10px; font-family: Arial, Helvetica;">3,000</text></g><g class="tick" opacity="1" transform="translate(0,264.17525626445047)"><line stroke="#000" x2="-6" style="fill: none; stroke: rgb(0, 0, 0); stroke-width: 1px; shape-rendering: crispedges;"></line><text fill="#000" x="-9" dy="0.32em" style="font-size: 10px; font-family: Arial, Helvetica;">3,500</text></g><g class="tick" opacity="1" transform="translate(0,195.17607735467948)"><line stroke="#000" x2="-6" style="fill: none; stroke: rgb(0, 0, 0); stroke-width: 1px; shape-rendering: crispedges;"></line><text fill="#000" x="-9" dy="0.32em" style="font-size: 10px; font-family: Arial, Helvetica;">4,000</text></g><g class="tick" opacity="1" transform="translate(0,126.17689844490849)"><line stroke="#000" x2="-6" style="fill: none; stroke: rgb(0, 0, 0); stroke-width: 1px; shape-rendering: crispedges;"></line><text fill="#000" x="-9" dy="0.32em" style="font-size: 10px; font-family: Arial, Helvetica;">4,500</text></g><g class="tick" opacity="1" transform="translate(0,57.1777195351375)"><line stroke="#000" x2="-6" style="fill: none; stroke: rgb(0, 0, 0); stroke-width: 1px; shape-rendering: crispedges;"></line><text fill="#000" x="-9" dy="0.32em" style="font-size: 10px; font-family: Arial, Helvetica;">5,000</text></g><text text-anchor="middle" y="-9" style="font-size: 10px; font-family: Arial, Helvetica;">Distance</text></g></g><g class="dim" transform="translate(426.11111111111114)"><g class="axis" fill="none" font-size="10" font-family="sans-serif" text-anchor="end"><path class="domain" stroke="#000" d="M-6,460.5H0.5V0.5H-6" style="fill: none; stroke: rgb(0, 0, 0); stroke-width: 1px; shape-rendering: crispedges;"></path><g class="tick" opacity="1" transform="translate(0,449.0723969337939)"><line stroke="#000" x2="-6" style="fill: none; stroke: rgb(0, 0, 0); stroke-width: 1px; shape-rendering: crispedges;"></line><text fill="#000" x="-9" dy="0.32em" style="font-size: 10px; font-family: Arial, Helvetica;">90</text></g><g class="tick" opacity="1" transform="translate(0,415.9008350580142)"><line stroke="#000" x2="-6" style="fill: none; stroke: rgb(0, 0, 0); stroke-width: 1px; shape-rendering: crispedges;"></line><text fill="#000" x="-9" dy="0.32em" style="font-size: 10px; font-family: Arial, Helvetica;">100</text></g><g class="tick" opacity="1" transform="translate(0,382.72927318223446)"><line stroke="#000" x2="-6" style="fill: none; stroke: rgb(0, 0, 0); stroke-width: 1px; shape-rendering: crispedges;"></line><text fill="#000" x="-9" dy="0.32em" style="font-size: 10px; font-family: Arial, Helvetica;">110</text></g><g class="tick" opacity="1" transform="translate(0,349.5577113064548)"><line stroke="#000" x2="-6" style="fill: none; stroke: rgb(0, 0, 0); stroke-width: 1px; shape-rendering: crispedges;"></line><text fill="#000" x="-9" dy="0.32em" style="font-size: 10px; font-family: Arial, Helvetica;">120</text></g><g class="tick" opacity="1" transform="translate(0,316.38614943067506)"><line stroke="#000" x2="-6" style="fill: none; stroke: rgb(0, 0, 0); stroke-width: 1px; shape-rendering: crispedges;"></line><text fill="#000" x="-9" dy="0.32em" style="font-size: 10px; font-family: Arial, Helvetica;">130</text></g><g class="tick" opacity="1" transform="translate(0,283.2145875548954)"><line stroke="#000" x2="-6" style="fill: none; stroke: rgb(0, 0, 0); stroke-width: 1px; shape-rendering: crispedges;"></line><text fill="#000" x="-9" dy="0.32em" style="font-size: 10px; font-family: Arial, Helvetica;">140</text></g><g class="tick" opacity="1" transform="translate(0,250.04302567911566)"><line stroke="#000" x2="-6" style="fill: none; stroke: rgb(0, 0, 0); stroke-width: 1px; shape-rendering: crispedges;"></line><text fill="#000" x="-9" dy="0.32em" style="font-size: 10px; font-family: Arial, Helvetica;">150</text></g><g class="tick" opacity="1" transform="translate(0,216.87146380333593)"><line stroke="#000" x2="-6" style="fill: none; stroke: rgb(0, 0, 0); stroke-width: 1px; shape-rendering: crispedges;"></line><text fill="#000" x="-9" dy="0.32em" style="font-size: 10px; font-family: Arial, Helvetica;">160</text></g><g class="tick" opacity="1" transform="translate(0,183.69990192755625)"><line stroke="#000" x2="-6" style="fill: none; stroke: rgb(0, 0, 0); stroke-width: 1px; shape-rendering: crispedges;"></line><text fill="#000" x="-9" dy="0.32em" style="font-size: 10px; font-family: Arial, Helvetica;">170</text></g><g class="tick" opacity="1" transform="translate(0,150.52834005177652)"><line stroke="#000" x2="-6" style="fill: none; stroke: rgb(0, 0, 0); stroke-width: 1px; shape-rendering: crispedges;"></line><text fill="#000" x="-9" dy="0.32em" style="font-size: 10px; font-family: Arial, Helvetica;">180</text></g><g class="tick" opacity="1" transform="translate(0,117.3567781759968)"><line stroke="#000" x2="-6" style="fill: none; stroke: rgb(0, 0, 0); stroke-width: 1px; shape-rendering: crispedges;"></line><text fill="#000" x="-9" dy="0.32em" style="font-size: 10px; font-family: Arial, Helvetica;">190</text></g><g class="tick" opacity="1" transform="translate(0,84.18521630021712)"><line stroke="#000" x2="-6" style="fill: none; stroke: rgb(0, 0, 0); stroke-width: 1px; shape-rendering: crispedges;"></line><text fill="#000" x="-9" dy="0.32em" style="font-size: 10px; font-family: Arial, Helvetica;">200</text></g><g class="tick" opacity="1" transform="translate(0,51.01365442443739)"><line stroke="#000" x2="-6" style="fill: none; stroke: rgb(0, 0, 0); stroke-width: 1px; shape-rendering: crispedges;"></line><text fill="#000" x="-9" dy="0.32em" style="font-size: 10px; font-family: Arial, Helvetica;">210</text></g><g class="tick" opacity="1" transform="translate(0,17.84209254865766)"><line stroke="#000" x2="-6" style="fill: none; stroke: rgb(0, 0, 0); stroke-width: 1px; shape-rendering: crispedges;"></line><text fill="#000" x="-9" dy="0.32em" style="font-size: 10px; font-family: Arial, Helvetica;">220</text></g><text text-anchor="middle" y="-9" style="font-size: 10px; font-family: Arial, Helvetica;">AveSpeed</text></g></g><g class="dim" transform="translate(511.33333333333337)"><g class="axis" fill="none" font-size="10" font-family="sans-serif" text-anchor="end"><path class="domain" stroke="#000" d="M-6,460.5H0.5V0.5H-6" style="fill: none; stroke: rgb(0, 0, 0); stroke-width: 1px; shape-rendering: crispedges;"></path><g class="tick" opacity="1" transform="translate(0,460.5)"><line stroke="#000" x2="-6" style="fill: none; stroke: rgb(0, 0, 0); stroke-width: 1px; shape-rendering: crispedges;"></line><text fill="#000" x="-9" dy="0.32em" style="font-size: 10px; font-family: Arial, Helvetica;">120</text></g><g class="tick" opacity="1" transform="translate(0,427.2870036101083)"><line stroke="#000" x2="-6" style="fill: none; stroke: rgb(0, 0, 0); stroke-width: 1px; shape-rendering: crispedges;"></line><text fill="#000" x="-9" dy="0.32em" style="font-size: 10px; font-family: Arial, Helvetica;">140</text></g><g class="tick" opacity="1" transform="translate(0,394.0740072202166)"><line stroke="#000" x2="-6" style="fill: none; stroke: rgb(0, 0, 0); stroke-width: 1px; shape-rendering: crispedges;"></line><text fill="#000" x="-9" dy="0.32em" style="font-size: 10px; font-family: Arial, Helvetica;">160</text></g><g class="tick" opacity="1" transform="translate(0,360.8610108303249)"><line stroke="#000" x2="-6" style="fill: none; stroke: rgb(0, 0, 0); stroke-width: 1px; shape-rendering: crispedges;"></line><text fill="#000" x="-9" dy="0.32em" style="font-size: 10px; font-family: Arial, Helvetica;">180</text></g><g class="tick" opacity="1" transform="translate(0,327.6480144404332)"><line stroke="#000" x2="-6" style="fill: none; stroke: rgb(0, 0, 0); stroke-width: 1px; shape-rendering: crispedges;"></line><text fill="#000" x="-9" dy="0.32em" style="font-size: 10px; font-family: Arial, Helvetica;">200</text></g><g class="tick" opacity="1" transform="translate(0,294.43501805054154)"><line stroke="#000" x2="-6" style="fill: none; stroke: rgb(0, 0, 0); stroke-width: 1px; shape-rendering: crispedges;"></line><text fill="#000" x="-9" dy="0.32em" style="font-size: 10px; font-family: Arial, Helvetica;">220</text></g><g class="tick" opacity="1" transform="translate(0,261.22202166064983)"><line stroke="#000" x2="-6" style="fill: none; stroke: rgb(0, 0, 0); stroke-width: 1px; shape-rendering: crispedges;"></line><text fill="#000" x="-9" dy="0.32em" style="font-size: 10px; font-family: Arial, Helvetica;">240</text></g><g class="tick" opacity="1" transform="translate(0,228.00902527075814)"><line stroke="#000" x2="-6" style="fill: none; stroke: rgb(0, 0, 0); stroke-width: 1px; shape-rendering: crispedges;"></line><text fill="#000" x="-9" dy="0.32em" style="font-size: 10px; font-family: Arial, Helvetica;">260</text></g><g class="tick" opacity="1" transform="translate(0,194.7960288808664)"><line stroke="#000" x2="-6" style="fill: none; stroke: rgb(0, 0, 0); stroke-width: 1px; shape-rendering: crispedges;"></line><text fill="#000" x="-9" dy="0.32em" style="font-size: 10px; font-family: Arial, Helvetica;">280</text></g><g class="tick" opacity="1" transform="translate(0,161.58303249097474)"><line stroke="#000" x2="-6" style="fill: none; stroke: rgb(0, 0, 0); stroke-width: 1px; shape-rendering: crispedges;"></line><text fill="#000" x="-9" dy="0.32em" style="font-size: 10px; font-family: Arial, Helvetica;">300</text></g><g class="tick" opacity="1" transform="translate(0,128.37003610108303)"><line stroke="#000" x2="-6" style="fill: none; stroke: rgb(0, 0, 0); stroke-width: 1px; shape-rendering: crispedges;"></line><text fill="#000" x="-9" dy="0.32em" style="font-size: 10px; font-family: Arial, Helvetica;">320</text></g><g class="tick" opacity="1" transform="translate(0,95.15703971119137)"><line stroke="#000" x2="-6" style="fill: none; stroke: rgb(0, 0, 0); stroke-width: 1px; shape-rendering: crispedges;"></line><text fill="#000" x="-9" dy="0.32em" style="font-size: 10px; font-family: Arial, Helvetica;">340</text></g><g class="tick" opacity="1" transform="translate(0,61.94404332129966)"><line stroke="#000" x2="-6" style="fill: none; stroke: rgb(0, 0, 0); stroke-width: 1px; shape-rendering: crispedges;"></line><text fill="#000" x="-9" dy="0.32em" style="font-size: 10px; font-family: Arial, Helvetica;">360</text></g><g class="tick" opacity="1" transform="translate(0,28.731046931407946)"><line stroke="#000" x2="-6" style="fill: none; stroke: rgb(0, 0, 0); stroke-width: 1px; shape-rendering: crispedges;"></line><text fill="#000" x="-9" dy="0.32em" style="font-size: 10px; font-family: Arial, Helvetica;">380</text></g><text text-anchor="middle" y="-9" style="font-size: 10px; font-family: Arial, Helvetica;">Laps</text></g></g><g class="dim" transform="translate(596.5555555555557)"><g class="axis" fill="none" font-size="10" font-family="sans-serif" text-anchor="end"><path class="domain" stroke="#000" d="M-6,460.5H0.5V0.5H-6" style="fill: none; stroke: rgb(0, 0, 0); stroke-width: 1px; shape-rendering: crispedges;"></path><g class="tick" opacity="1" transform="translate(0,451.79086657691494)"><line stroke="#000" x2="-6" style="fill: none; stroke: rgb(0, 0, 0); stroke-width: 1px; shape-rendering: crispedges;"></line><text fill="#000" x="-9" dy="0.32em" style="font-size: 10px; font-family: Arial, Helvetica;">110</text></g><g class="tick" opacity="1" transform="translate(0,419.19680436477006)"><line stroke="#000" x2="-6" style="fill: none; stroke: rgb(0, 0, 0); stroke-width: 1px; shape-rendering: crispedges;"></line><text fill="#000" x="-9" dy="0.32em" style="font-size: 10px; font-family: Arial, Helvetica;">120</text></g><g class="tick" opacity="1" transform="translate(0,386.60274215262524)"><line stroke="#000" x2="-6" style="fill: none; stroke: rgb(0, 0, 0); stroke-width: 1px; shape-rendering: crispedges;"></line><text fill="#000" x="-9" dy="0.32em" style="font-size: 10px; font-family: Arial, Helvetica;">130</text></g><g class="tick" opacity="1" transform="translate(0,354.0086799404804)"><line stroke="#000" x2="-6" style="fill: none; stroke: rgb(0, 0, 0); stroke-width: 1px; shape-rendering: crispedges;"></line><text fill="#000" x="-9" dy="0.32em" style="font-size: 10px; font-family: Arial, Helvetica;">140</text></g><g class="tick" opacity="1" transform="translate(0,321.41461772833554)"><line stroke="#000" x2="-6" style="fill: none; stroke: rgb(0, 0, 0); stroke-width: 1px; shape-rendering: crispedges;"></line><text fill="#000" x="-9" dy="0.32em" style="font-size: 10px; font-family: Arial, Helvetica;">150</text></g><g class="tick" opacity="1" transform="translate(0,288.8205555161908)"><line stroke="#000" x2="-6" style="fill: none; stroke: rgb(0, 0, 0); stroke-width: 1px; shape-rendering: crispedges;"></line><text fill="#000" x="-9" dy="0.32em" style="font-size: 10px; font-family: Arial, Helvetica;">160</text></g><g class="tick" opacity="1" transform="translate(0,256.2264933040459)"><line stroke="#000" x2="-6" style="fill: none; stroke: rgb(0, 0, 0); stroke-width: 1px; shape-rendering: crispedges;"></line><text fill="#000" x="-9" dy="0.32em" style="font-size: 10px; font-family: Arial, Helvetica;">170</text></g><g class="tick" opacity="1" transform="translate(0,223.63243109190108)"><line stroke="#000" x2="-6" style="fill: none; stroke: rgb(0, 0, 0); stroke-width: 1px; shape-rendering: crispedges;"></line><text fill="#000" x="-9" dy="0.32em" style="font-size: 10px; font-family: Arial, Helvetica;">180</text></g><g class="tick" opacity="1" transform="translate(0,191.03836887975626)"><line stroke="#000" x2="-6" style="fill: none; stroke: rgb(0, 0, 0); stroke-width: 1px; shape-rendering: crispedges;"></line><text fill="#000" x="-9" dy="0.32em" style="font-size: 10px; font-family: Arial, Helvetica;">190</text></g><g class="tick" opacity="1" transform="translate(0,158.4443066676114)"><line stroke="#000" x2="-6" style="fill: none; stroke: rgb(0, 0, 0); stroke-width: 1px; shape-rendering: crispedges;"></line><text fill="#000" x="-9" dy="0.32em" style="font-size: 10px; font-family: Arial, Helvetica;">200</text></g><g class="tick" opacity="1" transform="translate(0,125.85024445546657)"><line stroke="#000" x2="-6" style="fill: none; stroke: rgb(0, 0, 0); stroke-width: 1px; shape-rendering: crispedges;"></line><text fill="#000" x="-9" dy="0.32em" style="font-size: 10px; font-family: Arial, Helvetica;">210</text></g><g class="tick" opacity="1" transform="translate(0,93.25618224332175)"><line stroke="#000" x2="-6" style="fill: none; stroke: rgb(0, 0, 0); stroke-width: 1px; shape-rendering: crispedges;"></line><text fill="#000" x="-9" dy="0.32em" style="font-size: 10px; font-family: Arial, Helvetica;">220</text></g><g class="tick" opacity="1" transform="translate(0,60.662120031176926)"><line stroke="#000" x2="-6" style="fill: none; stroke: rgb(0, 0, 0); stroke-width: 1px; shape-rendering: crispedges;"></line><text fill="#000" x="-9" dy="0.32em" style="font-size: 10px; font-family: Arial, Helvetica;">230</text></g><g class="tick" opacity="1" transform="translate(0,28.068057819032106)"><line stroke="#000" x2="-6" style="fill: none; stroke: rgb(0, 0, 0); stroke-width: 1px; shape-rendering: crispedges;"></line><text fill="#000" x="-9" dy="0.32em" style="font-size: 10px; font-family: Arial, Helvetica;">240</text></g><text text-anchor="middle" y="-9" style="font-size: 10px; font-family: Arial, Helvetica;">FastestSpeed</text></g></g><g class="dim" transform="translate(681.7777777777778)"><g class="axis" fill="none" font-size="10" font-family="sans-serif" text-anchor="end"><path class="domain" stroke="#000" d="M-6,460.5H0.5V0.5H-6" style="fill: none; stroke: rgb(0, 0, 0); stroke-width: 1px; shape-rendering: crispedges;"></path><g class="tick" opacity="1" transform="translate(0,460.5)"><line stroke="#000" x2="-6" style="fill: none; stroke: rgb(0, 0, 0); stroke-width: 1px; shape-rendering: crispedges;"></line><text fill="#000" x="-9" dy="0.32em" style="font-size: 10px; font-family: Arial, Helvetica;">1</text></g><g class="tick" opacity="1" transform="translate(0,425.11538461538464)"><line stroke="#000" x2="-6" style="fill: none; stroke: rgb(0, 0, 0); stroke-width: 1px; shape-rendering: crispedges;"></line><text fill="#000" x="-9" dy="0.32em" style="font-size: 10px; font-family: Arial, Helvetica;">2</text></g><g class="tick" opacity="1" transform="translate(0,389.7307692307692)"><line stroke="#000" x2="-6" style="fill: none; stroke: rgb(0, 0, 0); stroke-width: 1px; shape-rendering: crispedges;"></line><text fill="#000" x="-9" dy="0.32em" style="font-size: 10px; font-family: Arial, Helvetica;">3</text></g><g class="tick" opacity="1" transform="translate(0,354.3461538461538)"><line stroke="#000" x2="-6" style="fill: none; stroke: rgb(0, 0, 0); stroke-width: 1px; shape-rendering: crispedges;"></line><text fill="#000" x="-9" dy="0.32em" style="font-size: 10px; font-family: Arial, Helvetica;">4</text></g><g class="tick" opacity="1" transform="translate(0,318.96153846153845)"><line stroke="#000" x2="-6" style="fill: none; stroke: rgb(0, 0, 0); stroke-width: 1px; shape-rendering: crispedges;"></line><text fill="#000" x="-9" dy="0.32em" style="font-size: 10px; font-family: Arial, Helvetica;">5</text></g><g class="tick" opacity="1" transform="translate(0,283.5769230769231)"><line stroke="#000" x2="-6" style="fill: none; stroke: rgb(0, 0, 0); stroke-width: 1px; shape-rendering: crispedges;"></line><text fill="#000" x="-9" dy="0.32em" style="font-size: 10px; font-family: Arial, Helvetica;">6</text></g><g class="tick" opacity="1" transform="translate(0,248.19230769230768)"><line stroke="#000" x2="-6" style="fill: none; stroke: rgb(0, 0, 0); stroke-width: 1px; shape-rendering: crispedges;"></line><text fill="#000" x="-9" dy="0.32em" style="font-size: 10px; font-family: Arial, Helvetica;">7</text></g><g class="tick" opacity="1" transform="translate(0,212.80769230769232)"><line stroke="#000" x2="-6" style="fill: none; stroke: rgb(0, 0, 0); stroke-width: 1px; shape-rendering: crispedges;"></line><text fill="#000" x="-9" dy="0.32em" style="font-size: 10px; font-family: Arial, Helvetica;">8</text></g><g class="tick" opacity="1" transform="translate(0,177.4230769230769)"><line stroke="#000" x2="-6" style="fill: none; stroke: rgb(0, 0, 0); stroke-width: 1px; shape-rendering: crispedges;"></line><text fill="#000" x="-9" dy="0.32em" style="font-size: 10px; font-family: Arial, Helvetica;">9</text></g><g class="tick" opacity="1" transform="translate(0,142.03846153846155)"><line stroke="#000" x2="-6" style="fill: none; stroke: rgb(0, 0, 0); stroke-width: 1px; shape-rendering: crispedges;"></line><text fill="#000" x="-9" dy="0.32em" style="font-size: 10px; font-family: Arial, Helvetica;">10</text></g><g class="tick" opacity="1" transform="translate(0,106.65384615384613)"><line stroke="#000" x2="-6" style="fill: none; stroke: rgb(0, 0, 0); stroke-width: 1px; shape-rendering: crispedges;"></line><text fill="#000" x="-9" dy="0.32em" style="font-size: 10px; font-family: Arial, Helvetica;">11</text></g><g class="tick" opacity="1" transform="translate(0,71.26923076923077)"><line stroke="#000" x2="-6" style="fill: none; stroke: rgb(0, 0, 0); stroke-width: 1px; shape-rendering: crispedges;"></line><text fill="#000" x="-9" dy="0.32em" style="font-size: 10px; font-family: Arial, Helvetica;">12</text></g><g class="tick" opacity="1" transform="translate(0,35.88461538461536)"><line stroke="#000" x2="-6" style="fill: none; stroke: rgb(0, 0, 0); stroke-width: 1px; shape-rendering: crispedges;"></line><text fill="#000" x="-9" dy="0.32em" style="font-size: 10px; font-family: Arial, Helvetica;">13</text></g><g class="tick" opacity="1" transform="translate(0,0.5)"><line stroke="#000" x2="-6" style="fill: none; stroke: rgb(0, 0, 0); stroke-width: 1px; shape-rendering: crispedges;"></line><text fill="#000" x="-9" dy="0.32em" style="font-size: 10px; font-family: Arial, Helvetica;">14</text></g><text text-anchor="middle" y="-9" style="font-size: 10px; font-family: Arial, Helvetica;">CircuitDesign</text></g></g><g class="dim" transform="translate(767)"><g class="axis" fill="none" font-size="10" font-family="sans-serif" text-anchor="end"><path class="domain" stroke="#000" d="M-6,460.5H0.5V0.5H-6" style="fill: none; stroke: rgb(0, 0, 0); stroke-width: 1px; shape-rendering: crispedges;"></path><g class="tick" opacity="1" transform="translate(0,460.5)"><line stroke="#000" x2="-6" style="fill: none; stroke: rgb(0, 0, 0); stroke-width: 1px; shape-rendering: crispedges;"></line><text fill="#000" x="-9" dy="0.32em" style="font-size: 10px; font-family: Arial, Helvetica;">0</text></g><g class="tick" opacity="1" transform="translate(0,405.73809523809524)"><line stroke="#000" x2="-6" style="fill: none; stroke: rgb(0, 0, 0); stroke-width: 1px; shape-rendering: crispedges;"></line><text fill="#000" x="-9" dy="0.32em" style="font-size: 10px; font-family: Arial, Helvetica;">10</text></g><g class="tick" opacity="1" transform="translate(0,350.9761904761905)"><line stroke="#000" x2="-6" style="fill: none; stroke: rgb(0, 0, 0); stroke-width: 1px; shape-rendering: crispedges;"></line><text fill="#000" x="-9" dy="0.32em" style="font-size: 10px; font-family: Arial, Helvetica;">20</text></g><g class="tick" opacity="1" transform="translate(0,296.2142857142857)"><line stroke="#000" x2="-6" style="fill: none; stroke: rgb(0, 0, 0); stroke-width: 1px; shape-rendering: crispedges;"></line><text fill="#000" x="-9" dy="0.32em" style="font-size: 10px; font-family: Arial, Helvetica;">30</text></g><g class="tick" opacity="1" transform="translate(0,241.45238095238096)"><line stroke="#000" x2="-6" style="fill: none; stroke: rgb(0, 0, 0); stroke-width: 1px; shape-rendering: crispedges;"></line><text fill="#000" x="-9" dy="0.32em" style="font-size: 10px; font-family: Arial, Helvetica;">40</text></g><g class="tick" opacity="1" transform="translate(0,186.6904761904762)"><line stroke="#000" x2="-6" style="fill: none; stroke: rgb(0, 0, 0); stroke-width: 1px; shape-rendering: crispedges;"></line><text fill="#000" x="-9" dy="0.32em" style="font-size: 10px; font-family: Arial, Helvetica;">50</text></g><g class="tick" opacity="1" transform="translate(0,131.92857142857144)"><line stroke="#000" x2="-6" style="fill: none; stroke: rgb(0, 0, 0); stroke-width: 1px; shape-rendering: crispedges;"></line><text fill="#000" x="-9" dy="0.32em" style="font-size: 10px; font-family: Arial, Helvetica;">60</text></g><g class="tick" opacity="1" transform="translate(0,77.16666666666663)"><line stroke="#000" x2="-6" style="fill: none; stroke: rgb(0, 0, 0); stroke-width: 1px; shape-rendering: crispedges;"></line><text fill="#000" x="-9" dy="0.32em" style="font-size: 10px; font-family: Arial, Helvetica;">70</text></g><g class="tick" opacity="1" transform="translate(0,22.404761904761926)"><line stroke="#000" x2="-6" style="fill: none; stroke: rgb(0, 0, 0); stroke-width: 1px; shape-rendering: crispedges;"></line><text fill="#000" x="-9" dy="0.32em" style="font-size: 10px; font-family: Arial, Helvetica;">80</text></g><text text-anchor="middle" y="-9" style="font-size: 10px; font-family: Arial, Helvetica;">Deaths</text></g></g></g></g></svg>